HIERARCHY
ROOT simHips
{
  OFFSET -7.68933 97.4391 50.0166
  CHANNELS 6 Xposition Yposition Zposition Zrotation Xrotation Yrotation
  JOINT simSpine
  {
    OFFSET -0.000355721 21.3001 -0.016921
    CHANNELS 3 Zrotation Xrotation Yrotation
    JOINT simLeftArm
    {
      OFFSET 13.5181 21.3012 0
      CHANNELS 3 Zrotation Xrotation Yrotation
      JOINT simLeftForeArm
      {
        OFFSET 24.5783 0 0
        CHANNELS 3 Zrotation Xrotation Yrotation
        JOINT simLeftHand
        {
          OFFSET 24.5783 0 0
          CHANNELS 3 Zrotation Xrotation Yrotation
          End Site
          {
            OFFSET 7.32568 1.52588e-005 0.0169305
          }
        }
      }
    }
    JOINT simHead
    {
      OFFSET 0 27.4458 -0.00489235
      CHANNELS 3 Zrotation Xrotation Yrotation
      End Site
      {
        OFFSET 0 0 0
      }
    }
    JOINT simRightArm
    {
      OFFSET -13.5174 21.3012 0
      CHANNELS 3 Zrotation Xrotation Yrotation
      JOINT simRightForeArm
      {
        OFFSET -24.5783 0 0
        CHANNELS 3 Zrotation Xrotation Yrotation
        JOINT simRightHand
        {
          OFFSET -24.5783 0 0
          CHANNELS 3 Zrotation Xrotation Yrotation
          End Site
          {
            OFFSET -7.32568 1.52588e-005 0.0169305
          }
        }
      }
    }
  }
  JOINT simRightUpLeg
  {
    OFFSET -8.44614 -9.41038 0.835684
    CHANNELS 3 Zrotation Xrotation Yrotation
    JOINT simRightLeg
    {
      OFFSET 0 -40.9639 0
      CHANNELS 3 Zrotation Xrotation Yrotation
      JOINT simRightFoot
      {
        OFFSET 0 -40.9639 0
        CHANNELS 3 Zrotation Xrotation Yrotation
        End Site
        {
          OFFSET 0.50614 -9.67405 14.6709
        }
      }
    }
  }
  JOINT simLeftUpLeg
  {
    OFFSET 8.44614 -9.41038 0.835684
    CHANNELS 3 Zrotation Xrotation Yrotation
    JOINT simLeftLeg
    {
      OFFSET 0 -40.9639 0
      CHANNELS 3 Zrotation Xrotation Yrotation
      JOINT simLeftFoot
      {
        OFFSET 0 -40.9639 0
        CHANNELS 3 Zrotation Xrotation Yrotation
        End Site
        {
          OFFSET -0.50614 -9.67405 14.6709
        }
      }
    }
  }
}
MOTION
Frames:	16
Frame Time:	0.0333333
-8.87299 97.7472 47.9619 -6.93003 6.1171 26.2878 10.1881 -3.72795 15.1891 -52.6288 -55.9027 27.9608 9.46539 -3.82264 -16.8025 2.09896 37.425 -6.17795 13.3338 -3.64197 -23.4929 39.3718 2.24185 59.309 -18.543 -11.2813 35.2541 -0.0025412 -1.42712 -0.200623 12.5333 -5.03096 19.51 0.000505904 15.5661 -0.81075 -16.0369 -22.51 -43.3907 4.33405 -16.772 -34.0218 0.00915211 26.6332 -0.30838 -2.49986 -19.4227 14.9344 
-8.98163 97.7477 48.0364 -6.70198 5.47115 27.6221 10.0977 -3.61804 14.8839 -53.5571 -54.1384 25.3319 9.77847 -4.0081 -17.3861 1.70365 34.3774 -5.51501 12.7581 -2.11987 -23.1316 39.8372 2.01535 57.3678 -18.4785 -11.209 35.1074 -0.000991517 -1.584 -0.222514 12.7616 -4.31379 19.3897 9.58561e-005 15.5876 -0.864269 -17.17 -23.0239 -44.765 4.30688 -16.742 -33.8179 0.00215964 26.9705 -0.251528 -2.2539 -19.2546 13.2276 
-9.17202 97.6639 48.4657 -6.72365 4.6189 28.4187 9.25072 -4.01741 14.9057 -53.1759 -53.052 24.5618 10.1093 -4.20775 -18.0073 1.30441 30.5595 -4.76173 11.4495 -1.92273 -23.2904 39.826 7.92752 51.9086 -17.4307 -10.1019 32.7177 0.00248586 -2.95722 -0.415731 13.126 -3.11515 18.1481 -0.000573348 14.7967 -0.82555 -17.2963 -22.8865 -44.3727 4.91611 -16.2273 -33.4835 0.00410864 27.228 -0.34524 -2.80154 -19.5959 12.4114 
-9.45154 97.5637 48.8921 -6.70726 4.16212 27.9897 7.98227 -4.06588 15.4821 -51.9184 -54.2329 26.2093 9.92464 -4.09617 -17.6597 1.53036 32.8473 -5.20301 10.2917 -3.1806 -23.1005 49.4868 10.4121 47.1557 -15.4603 -8.18594 28.5626 -0.0313196 4.45787 0.628003 13.2411 -2.31199 16.7621 -0.00198241 14.1087 -0.745946 -16.491 -22.3992 -42.6188 5.44733 -15.5162 -33.4782 0.00310958 27.4372 -0.384136 -2.97074 -20.1782 12.8448 
-9.73435 97.5766 48.915 -6.88265 4.29107 26.953 7.28806 -3.49857 16.3307 -50.7372 -56.7566 28.9547 9.44845 -3.81283 -16.771 2.2134 38.284 -6.36917 10.9916 -4.99969 -23.0964 50.9747 10.523 47.3114 -15.3187 -8.07163 28.2444 -0.00952236 3.27124 0.460175 13.198 -2.37579 15.9799 -0.00180487 13.5161 -0.677908 -15.4733 -21.6436 -40.7438 5.91741 -15.5088 -33.1336 -0.00895244 27.5337 -0.353063 -2.5516 -20.3144 13.6898 
-9.88104 97.5712 48.724 -7.27341 5.03564 26.1333 7.36472 -3.46419 16.7852 -49.5076 -58.5109 31.6992 9.16892 -3.65118 -16.2522 2.63087 41.0168 -7.0226 13.162 -5.00561 -23.3385 44.7361 9.21508 52.118 -17.2849 -9.95414 32.3918 0.0147838 0.0591157 0.00831997 13.4194 -3.40704 16.7082 0.000581553 13.7367 -0.717985 -15.3632 -21.4158 -40.4947 6.10768 -16.1812 -33.3876 -0.00433992 27.4944 -0.366652 -2.57963 -20.3439 14.802 
-9.85417 97.6277 48.5546 -7.35356 5.28811 26.7168 7.87657 -3.30656 16.4706 -50.3241 -58.1225 31.3986 9.21379 -3.67705 -16.3353 2.51083 40.2759 -6.83946 15.2163 -3.03052 -23.8656 39.4858 5.04509 56.1287 -19.4349 -12.3091 37.3461 -0.0113689 -3.11496 -0.438287 13.4384 -3.90935 17.1324 0.00215758 14.0123 -0.765107 -15.867 -21.7186 -41.3803 5.84244 -16.6405 -33.9234 0.00581754 27.3802 -0.309709 -2.41885 -20.0394 14.5579 
-9.77397 97.653 48.4801 -7.45844 4.76576 28.4475 8.79595 -3.03036 15.7309 -51.6177 -56.7664 29.3218 9.32792 -3.74282 -16.5471 2.3443 39.1954 -6.58011 16.1141 -1.35732 -24.1684 39.3984 1.30945 57.4814 -20.1641 -13.2134 39.0989 -0.0108826 -2.914 -0.409921 13.6965 -3.58529 16.716 0.00150423 13.9352 -0.787696 -16.7216 -22.1961 -42.6052 5.92903 -17.0662 -33.8966 0.00492897 27.5915 -0.30535 -2.61736 -19.7316 12.599 
-9.71441 97.658 48.6576 -7.36513 4.16449 29.7023 9.24979 -3.51159 15.3336 -51.3519 -55.2455 28.1247 9.59067 -3.89658 -17.0359 1.90839 36.0356 -5.86714 16.6785 -0.780915 -24.0944 42.6629 3.04848 54.4521 -19.4674 -12.3703 37.3602 -0.00424913 -1.97939 -0.278304 13.8851 -2.63006 16.5419 3.08748e-005 13.3452 -0.777574 -17.6008 -22.4254 -43.6714 6.03686 -16.9456 -33.7677 0.00485669 27.6586 -0.32691 -2.7836 -19.6128 11.1375 
-9.70038 97.5807 48.9433 -6.92598 3.78957 29.9509 9.12959 -3.99105 15.5102 -50.5427 -54.6906 28.1775 9.82899 -4.03805 -17.4815 1.62073 33.6091 -5.36017 16.2137 -1.79109 -23.7753 47.6641 7.91824 49.126 -17.2046 -9.86078 32.2518 -2.56718e-005 1.28058 0.179867 13.6956 -2.19146 15.9314 -0.000730043 13.863 -0.788619 -17.5218 -22.8654 -43.4993 5.93967 -16.4014 -33.4332 0.00588698 27.7657 -0.344844 -2.86559 -19.8568 10.0924 
-9.76386 97.5387 49.034 -6.80154 3.91708 29.3701 9.15222 -3.94221 16.0793 -49.6651 -55.2417 29.2772 9.57204 -3.88551 -17.001 1.90185 35.9855 -5.8563 15.4396 -3.6412 -23.0584 54.4012 9.47321 45.2379 -15.4041 -8.13568 28.4478 -0.0193868 3.91468 0.551012 13.5864 -2.25198 15.8955 -0.000837828 13.9819 -0.778677 -17.0797 -22.5908 -43.0152 6.01275 -16.3294 -33.1493 0.00601024 27.8972 -0.308627 -2.59113 -20.0677 9.94648 
-9.96602 97.5125 49.0182 -7.13383 4.63783 28.2822 9.10729 -3.98499 16.66 -47.881 -57.3439 31.377 9.28277 -3.71663 -16.4635 2.29696 38.8583 -6.50263 16.2094 -4.25142 -22.9149 53.314 11.1872 46.0844 -15.3183 -8.06881 28.2456 -0.00848612 2.97796 0.418765 13.843 -2.99645 16.8776 0.0019214 14.0298 -0.822364 -17.1089 -22.316 -42.8287 6.25055 -16.8097 -33.1813 0.00651048 27.918 -0.288365 -2.43372 -20.2437 11.108 
-10.1207 97.5278 48.9197 -7.46132 4.99211 28.054 9.34008 -3.70332 16.3939 -48.5213 -57.5384 31.0091 9.29336 -3.72251 -16.4832 2.25904 38.6023 -6.44268 16.478 -3.69019 -23.2579 53.3859 8.81562 48.617 -15.5296 -8.25666 28.6874 -0.0483694 6.17103 0.870763 14.1365 -3.39291 17.4277 0.00543946 13.7572 -0.854361 -17.3612 -22.0656 -43.0169 6.44014 -17.2435 -33.4708 0.00808632 27.872 -0.280376 -2.45524 -20.1941 11.7643 
-10.2221 97.5475 49.051 -7.41246 5.00092 28.2285 8.94294 -3.70782 15.9202 -51.096 -55.6374 27.9817 9.62758 -3.91274 -17.1144 1.86777 35.6056 -5.78071 16.0305 -3.17032 -23.3706 51.5254 8.28215 50.4429 -15.6604 -8.36507 28.9862 -0.0354961 5.31574 0.749171 14.1275 -3.17996 17.4891 0.00801516 13.3969 -0.861218 -17.554 -21.938 -43.1076 6.36376 -17.1035 -33.7994 0.00768945 27.793 -0.237969 -2.14733 -20.2012 11.9482 
-10.2938 97.581 49.2744 -7.16395 4.58198 28.6176 8.1429 -3.41014 15.412 -57.7011 -50.6035 20.9309 11.0334 -4.80317 -19.7445 0.906446 26.6445 -4.02087 14.9643 -4.64863 -23.7421 50.1536 10.6621 49.2898 -17.2745 -9.93432 32.4245 0.0038807 1.24595 0.175031 13.7404 -1.85574 16.6089 0.00371289 11.7513 -0.727562 -16.8884 -20.9154 -42.134 6.54501 -16.7241 -33.2344 0.00519802 27.7265 -0.164209 -1.78872 -20.1426 10.8198 
-10.2673 97.6032 49.4526 -7.23773 4.19523 29.3821 7.42404 -3.1569 14.0944 -67.4665 -37.7372 11.0923 14.6781 -7.52762 -26.9058 0.0717225 7.34889 -1.04621 12.6028 -8.22149 -24.2744 48.2118 16.3831 46.0839 -21.4838 -15.074 42.1025 -0.0447312 -6.03358 -0.85074 13.3822 -0.271949 15.5204 0.00283862 9.22487 -0.530277 -15.9297 -19.3768 -40.8288 6.97181 -16.7282 -32.8742 0.00255479 27.7736 -0.144799 -1.61156 -20.1655 9.08983 
